<?xml version="1.0" encoding="utf-8"?>
<svg xmlns="http://www.w3.org/2000/svg" data-name="Layer 1" id="Layer_1" viewBox="0 0 143.8 36.42">
  <defs>
    <style>.cls-1{fill:#0077c8;}</style>
  </defs>
  <title>RRH_Logo_RGB</title>
  <path d="M39.29,25.12h3.65l4.2,8.39h3.7l-4.6-8.84A5.82,5.82,0,0,0,49,22.87a5.24,5.24,0,0,0,1.17-3.53A6.3,6.3,0,0,0,49.74,17a5.29,5.29,0,0,0-1.26-1.87,5.92,5.92,0,0,0-2-1.22,7.23,7.23,0,0,0-2.59-.44h-7.8V33.52h3.18V25.12ZM47,19.37a2.81,2.81,0,0,1-.91,2.23,3.54,3.54,0,0,1-2.4.79h-4.4V16.31h4.4a3.51,3.51,0,0,1,2.4.81A2.85,2.85,0,0,1,47,19.37Z" transform="translate(-36.11 -13.27)"/>
  <path d="M66.68,18.58a6.84,6.84,0,0,0-.61-1.74,6.29,6.29,0,0,0-1.15-1.53,6.91,6.91,0,0,0-2.26-1.51,8.52,8.52,0,0,0-5.88,0,6.91,6.91,0,0,0-2.26,1.51,6.26,6.26,0,0,0-1.15,1.53,6.81,6.81,0,0,0-.61,1.74,12.74,12.74,0,0,0-.24,2.14c0,0.79,0,1.72,0,2.76s0,2,0,2.76a12.73,12.73,0,0,0,.24,2.14,6.78,6.78,0,0,0,.61,1.74,6.22,6.22,0,0,0,1.15,1.53,6.9,6.9,0,0,0,2.26,1.51,8.52,8.52,0,0,0,5.88,0,6.92,6.92,0,0,0,2.26-1.51,6.28,6.28,0,0,0,1.15-1.53,6.83,6.83,0,0,0,.61-1.74,12.75,12.75,0,0,0,.24-2.14c0-.78,0-1.71,0-2.76s0-2,0-2.76A12.76,12.76,0,0,0,66.68,18.58Zm-2.9,4.9c0,1,0,1.82,0,2.49a12.4,12.4,0,0,1-.17,1.68,4.09,4.09,0,0,1-.36,1.12,3.76,3.76,0,0,1-.59.84,4,4,0,0,1-1.29.91,4.14,4.14,0,0,1-3.24,0,4,4,0,0,1-1.29-.9,3.73,3.73,0,0,1-.59-0.84,4.09,4.09,0,0,1-.36-1.14A12.71,12.71,0,0,1,55.7,26c0-.66,0-1.49,0-2.47s0-1.82,0-2.49a12.4,12.4,0,0,1,.17-1.68,4.31,4.31,0,0,1,.36-1.14,3.63,3.63,0,0,1,.59-0.85,4.11,4.11,0,0,1,5.82,0,3.76,3.76,0,0,1,.59.84,4.1,4.1,0,0,1,.36,1.14,12.8,12.8,0,0,1,.17,1.7C63.77,21.66,63.78,22.49,63.78,23.48Z" transform="translate(-36.11 -13.27)"/>
  <path d="M83.84,27.4H80.66v0.06a4.77,4.77,0,0,1-1.36,2.45,4.13,4.13,0,0,1-5.53-.28,3,3,0,0,1-.6-0.84,5.13,5.13,0,0,1-.36-1.14A11,11,0,0,1,72.62,26c0-.67,0-1.51,0-2.49s0-1.82,0-2.49a11,11,0,0,1,.18-1.68,5.15,5.15,0,0,1,.36-1.14,3,3,0,0,1,.6-0.85,3.78,3.78,0,0,1,2.88-1.21,3.69,3.69,0,0,1,2.63.93,4.65,4.65,0,0,1,1.32,2.45v0.06h3.23l0-.09a7.46,7.46,0,0,0-2.46-4.59,7.18,7.18,0,0,0-4.72-1.6,7.74,7.74,0,0,0-2.94.52,6.92,6.92,0,0,0-2.26,1.51,6.27,6.27,0,0,0-1.15,1.53,6.78,6.78,0,0,0-.61,1.74,12.75,12.75,0,0,0-.24,2.14c0,0.8,0,1.72,0,2.76s0,2,0,2.76a12.74,12.74,0,0,0,.24,2.14,6.77,6.77,0,0,0,.61,1.74,6.25,6.25,0,0,0,1.15,1.53,6.92,6.92,0,0,0,2.26,1.51,7.72,7.72,0,0,0,2.94.52,7.19,7.19,0,0,0,4.71-1.6,7.43,7.43,0,0,0,2.48-4.59Z" transform="translate(-36.11 -13.27)"/>
  <polygon points="53.3 11.54 61.23 11.54 61.23 20.24 64.41 20.24 64.41 0.17 61.23 0.17 61.23 8.67 53.3 8.67 53.3 0.17 50.13 0.17 50.13 20.24 53.3 20.24 53.3 11.54"/>
  <polygon points="68.53 20.24 81.41 20.24 81.41 17.37 71.71 17.37 71.71 11.54 79.99 11.54 79.99 8.7 71.71 8.7 71.71 3.04 81.41 3.04 81.41 0.17 68.53 0.17 68.53 20.24"/>
  <path d="M133,27.76a5.36,5.36,0,0,0-1.65-4.14,5,5,0,0,0-1.51-.94,11,11,0,0,0-2.23-.56l-2.38-.36a5.93,5.93,0,0,1-1.28-.34,3.36,3.36,0,0,1-.86-0.53,1.79,1.79,0,0,1-.54-0.78,3,3,0,0,1-.16-1,2.87,2.87,0,0,1,.9-2.18,3.72,3.72,0,0,1,2.63-.85,8.35,8.35,0,0,1,2.36.32,4.82,4.82,0,0,1,2,1.2l0.06,0.05,2-2,0.06-.06-0.06-.06a8.25,8.25,0,0,0-2.75-1.75,10.15,10.15,0,0,0-3.48-.54,8.77,8.77,0,0,0-2.82.42,6,6,0,0,0-2.11,1.21,5.33,5.33,0,0,0-1.33,1.87,6,6,0,0,0-.47,2.39,5,5,0,0,0,1.51,3.89,7,7,0,0,0,3.79,1.62L127,25a4,4,0,0,1,2.14.82,2.52,2.52,0,0,1,.76,2,2.61,2.61,0,0,1-1,2.22,5,5,0,0,1-3,.78,8.69,8.69,0,0,1-2.74-.42,6,6,0,0,1-2.32-1.49l-0.06-.06-2,2-0.06.06L118.66,31a8.47,8.47,0,0,0,3.15,2.06,12,12,0,0,0,4,.59,10.19,10.19,0,0,0,2.9-.39A6.75,6.75,0,0,0,131,32.13a5.4,5.4,0,0,0,1.5-1.87A5.65,5.65,0,0,0,133,27.76Z" transform="translate(-36.11 -13.27)"/>
  <polygon points="102.72 20.24 105.9 20.24 105.9 3.04 111.39 3.04 111.39 0.17 97.24 0.17 97.24 3.04 102.72 3.04 102.72 20.24"/>
  <polygon points="126.32 17.37 116.62 17.37 116.62 11.54 124.9 11.54 124.9 8.7 116.62 8.7 116.62 3.04 126.32 3.04 126.32 0.17 113.44 0.17 113.44 20.24 126.32 20.24 126.32 17.37"/>
  <path d="M168.37,25.12H172l4.17,8.35,0,0h3.7l-4.6-8.84a5.82,5.82,0,0,0,2.77-1.8,5.24,5.24,0,0,0,1.17-3.53,6.32,6.32,0,0,0-.44-2.37,5.29,5.29,0,0,0-1.26-1.87,5.92,5.92,0,0,0-2-1.22,7.23,7.23,0,0,0-2.59-.44h-7.8V33.52h3.18V25.12Zm0-8.81h4.4a3.51,3.51,0,0,1,2.4.81,2.85,2.85,0,0,1,.91,2.25,2.81,2.81,0,0,1-.91,2.23,3.54,3.54,0,0,1-2.4.79h-4.4V16.31Z" transform="translate(-36.11 -13.27)"/>
  <path d="M44.37,42.83a3.36,3.36,0,0,0,.75-2.26,4,4,0,0,0-.28-1.51,3.39,3.39,0,0,0-.81-1.2,3.79,3.79,0,0,0-1.26-.78,4.62,4.62,0,0,0-1.65-.28h-5v12.8h2.07V44.26h2.27l2.66,5.33h2.42L42.63,44A3.72,3.72,0,0,0,44.37,42.83ZM43,40.58a1.75,1.75,0,0,1-.57,1.4,2.22,2.22,0,0,1-1.5.5H38.21v-3.8H41a2.2,2.2,0,0,1,1.5.5A1.78,1.78,0,0,1,43,40.58Z" transform="translate(-36.11 -13.27)"/>
  <polygon points="10.96 36.32 19.2 36.32 19.2 34.44 13.04 34.44 13.04 30.8 18.29 30.8 18.29 28.93 13.04 28.93 13.04 25.4 19.2 25.4 19.2 23.52 10.96 23.52 10.96 36.32"/>
  <path d="M61,44.39h2.7V45a4.08,4.08,0,0,1-.13,1.08,2.2,2.2,0,0,1-.47.86,2.34,2.34,0,0,1-.88.65,2.87,2.87,0,0,1-1.13.22,2.43,2.43,0,0,1-1.82-.76,2.26,2.26,0,0,1-.37-0.53,2.7,2.7,0,0,1-.22-0.72,7.9,7.9,0,0,1-.11-1.06c0-.42,0-0.94,0-1.58s0-1.16,0-1.58a7.86,7.86,0,0,1,.11-1.06,2.72,2.72,0,0,1,.22-0.72,2.27,2.27,0,0,1,.37-0.53,2.43,2.43,0,0,1,1.83-.76,2.52,2.52,0,0,1,1.69.56,2.9,2.9,0,0,1,.9,1.58v0.06h2.07V40.66a5.22,5.22,0,0,0-.49-1.53A4.3,4.3,0,0,0,62.89,37a5,5,0,0,0-1.82-.32,4.92,4.92,0,0,0-1.88.33,4.41,4.41,0,0,0-1.45,1A4,4,0,0,0,57,39a4.36,4.36,0,0,0-.39,1.11,8.19,8.19,0,0,0-.15,1.36c0,0.5,0,1.09,0,1.75s0,1.25,0,1.75a8.17,8.17,0,0,0,.15,1.36A4.35,4.35,0,0,0,57,47.42a4,4,0,0,0,.73,1,4.38,4.38,0,0,0,1.45,1,4.92,4.92,0,0,0,1.88.33A5.21,5.21,0,0,0,63,49.35a4.53,4.53,0,0,0,1.62-1.11,4,4,0,0,0,.9-1.53,7.17,7.17,0,0,0,.26-2.09v-2H61v1.79Z" transform="translate(-36.11 -13.27)"/>
  <rect height="12.8" width="2.07" x="31.81" y="23.52"/>
  <path d="M81.06,40.08A4.36,4.36,0,0,0,80.67,39a4,4,0,0,0-.73-1,4.41,4.41,0,0,0-1.45-1,5.43,5.43,0,0,0-3.75,0,4.4,4.4,0,0,0-1.45,1,4,4,0,0,0-.73,1,4.36,4.36,0,0,0-.39,1.11A8.13,8.13,0,0,0,72,41.44c0,0.5,0,1.09,0,1.75s0,1.26,0,1.75a8.1,8.1,0,0,0,.15,1.36,4.35,4.35,0,0,0,.39,1.11,4,4,0,0,0,.73,1,4.38,4.38,0,0,0,1.45,1,5.43,5.43,0,0,0,3.75,0,4.4,4.4,0,0,0,1.45-1,4,4,0,0,0,.73-1,4.35,4.35,0,0,0,.39-1.11,8.1,8.1,0,0,0,.15-1.36c0-.5,0-1.09,0-1.75s0-1.26,0-1.75A8.13,8.13,0,0,0,81.06,40.08Zm-4.44,7.76a2.48,2.48,0,0,1-1-.21,2.52,2.52,0,0,1-.81-0.57,2.37,2.37,0,0,1-.37-0.52,2.53,2.53,0,0,1-.22-0.71,8,8,0,0,1-.11-1.06c0-.41,0-0.94,0-1.57s0-1.16,0-1.58a7.83,7.83,0,0,1,.11-1.06,2.71,2.71,0,0,1,.22-0.72,2.29,2.29,0,0,1,.37-0.53,2.58,2.58,0,0,1,3.65,0,2.37,2.37,0,0,1,.37.52,2.58,2.58,0,0,1,.22.72,8.09,8.09,0,0,1,.11,1.07c0,0.42,0,.95,0,1.58s0,1.16,0,1.58A7.76,7.76,0,0,1,79,45.83a2.57,2.57,0,0,1-.22.71,2.36,2.36,0,0,1-.37.52,2.52,2.52,0,0,1-.81.57A2.48,2.48,0,0,1,76.61,47.84Z" transform="translate(-36.11 -13.27)"/>
  <polygon points="54.71 32.21 49.01 23.55 48.99 23.52 47.11 23.52 47.11 36.32 49.19 36.32 49.19 27.61 54.88 36.28 54.91 36.32 56.79 36.32 56.79 23.52 54.71 23.52 54.71 32.21"/>
  <path d="M100.51,36.79H98.86l-4.69,12.8h2.21l0.87-2.54h4.88L103,49.59h2.21l-4.67-12.75Zm1,8.47H97.87L99.73,40Z" transform="translate(-36.11 -13.27)"/>
  <polygon points="72.78 23.52 70.71 23.52 70.71 36.32 78.88 36.32 78.88 34.44 72.78 34.44 72.78 23.52"/>
  <polygon class="cls-1" points="91.43 28.91 86.45 28.91 86.45 23.52 84.38 23.52 84.38 36.32 86.45 36.32 86.45 30.8 91.43 30.8 91.43 36.32 93.5 36.32 93.5 23.52 91.43 23.52 91.43 28.91"/>
  <polygon class="cls-1" points="96.08 36.32 104.31 36.32 104.31 34.44 98.15 34.44 98.15 30.8 103.41 30.8 103.41 28.93 98.15 28.93 98.15 25.4 104.31 25.4 104.31 23.52 96.08 23.52 96.08 36.32"/>
  <path class="cls-1" d="M147.64,36.79H146l-4.69,12.8h2.21l0.87-2.54h4.88l0.87,2.54h2.21l-4.67-12.75Zm1,8.47H145L146.85,40Z" transform="translate(-36.11 -13.27)"/>
  <polygon class="cls-1" points="119.53 23.52 117.46 23.52 117.46 36.32 125.62 36.32 125.62 34.44 119.53 34.44 119.53 23.52"/>
  <polygon class="cls-1" points="124.05 25.4 127.53 25.4 127.53 36.32 129.61 36.32 129.61 25.4 133.09 25.4 133.09 23.52 124.05 23.52 124.05 25.4"/>
  <polygon class="cls-1" points="141.1 28.91 136.12 28.91 136.12 23.52 134.05 23.52 134.05 36.32 136.12 36.32 136.12 30.8 141.1 30.8 141.1 36.32 143.17 36.32 143.17 23.52 141.1 23.52 141.1 28.91"/>
</svg>